<svg width="80" height="76" viewBox="0 0 80 76" fill="none" xmlns="http://www.w3.org/2000/svg">
<path d="M39.0975 0.891365C39.4597 0.132243 40.5403 0.132244 40.9025 0.891366L52.1509 24.4642C52.2967 24.7697 52.5871 24.9807 52.9227 25.0249L78.8177 28.4384C79.6516 28.5483 79.9856 29.576 79.3755 30.1551L60.4324 48.1373C60.1869 48.3704 60.0759 48.7118 60.1376 49.0447L64.8932 74.7271C65.0463 75.5542 64.1721 76.1893 63.4329 75.7881L40.477 63.3289C40.1795 63.1674 39.8205 63.1674 39.523 63.3289L16.5671 75.7881C15.8278 76.1893 14.9537 75.5542 15.1068 74.7271L19.8624 49.0447C19.9241 48.7118 19.8131 48.3704 19.5676 48.1373L0.624473 30.1551C0.0144417 29.576 0.348353 28.5483 1.18226 28.4384L27.0773 25.0249C27.4129 24.9807 27.7033 24.7697 27.8491 24.4642L39.0975 0.891365Z" fill="#8700FA" fill-opacity="0.8"/>
</svg>
