<?xml version="1.0" standalone="no"?>
<!DOCTYPE svg PUBLIC "-//W3C//DTD SVG 20010904//EN"
 "http://www.w3.org/TR/2001/REC-SVG-20010904/DTD/svg10.dtd">
<svg version="1.0" xmlns="http://www.w3.org/2000/svg"
 width="640.000000pt" height="1280.000000pt" viewBox="0 0 640.000000 1280.000000"
 preserveAspectRatio="xMidYMid meet">
<metadata>
Created by potrace 1.15, written by Peter Selinger 2001-2017
</metadata>
<g transform="translate(0.000000,1280.000000) scale(0.100000,-0.100000)"
fill="#000000" stroke="none">
<path d="M4490 12790 c-8 -5 -24 -7 -36 -4 -12 3 -27 -1 -35 -8 -8 -8 -21 -17
-30 -20 -9 -3 -26 -31 -39 -62 -12 -31 -26 -56 -31 -56 -5 0 -26 -26 -45 -57
-20 -32 -45 -68 -56 -79 -10 -12 -29 -50 -42 -85 -34 -95 -184 -249 -242 -249
-35 0 -62 40 -73 109 -15 90 -65 140 -91 92 -18 -35 -11 -96 24 -202 19 -57
40 -130 46 -162 12 -62 30 -85 138 -177 45 -39 54 -53 67 -105 9 -33 22 -159
30 -280 9 -121 20 -251 26 -290 23 -151 74 -284 181 -465 24 -41 51 -102 60
-135 9 -33 30 -91 47 -130 16 -38 29 -71 27 -72 -1 -1 -31 13 -68 31 -137 69
-376 84 -563 36 -109 -28 -188 -28 -253 0 -48 21 -112 78 -112 100 0 6 -5 10
-10 10 -14 0 12 -48 46 -84 15 -15 50 -39 78 -52 47 -22 48 -24 21 -24 -83 0
-249 70 -301 127 -19 20 -34 31 -34 23 0 -31 99 -108 204 -158 58 -28 106 -57
106 -63 0 -7 -27 -40 -59 -74 -39 -40 -63 -76 -72 -104 -15 -51 -60 -93 -125
-115 -127 -44 -151 -74 -94 -117 17 -13 43 -34 57 -45 l27 -22 -27 -39 c-15
-21 -27 -44 -27 -51 0 -6 20 -36 45 -66 25 -31 45 -63 45 -71 0 -9 -19 -24
-45 -35 -59 -25 -65 -43 -32 -102 20 -36 27 -62 27 -104 0 -69 10 -87 63 -118
72 -41 137 -58 254 -65 125 -8 146 -18 162 -78 15 -52 3 -98 -36 -137 -46 -46
-233 -108 -393 -131 -267 -37 -436 -113 -530 -239 -21 -28 -59 -91 -85 -141
-65 -123 -76 -141 -182 -291 -51 -72 -121 -162 -155 -199 l-63 -67 3 103 c3
90 -1 123 -28 239 -41 175 -46 279 -25 515 19 223 29 251 114 339 31 34 74 90
94 127 20 36 48 76 63 90 14 13 35 42 46 64 11 22 22 41 23 43 2 2 37 12 78
22 83 21 162 57 189 87 48 53 20 129 -62 171 -38 20 -56 23 -120 19 -93 -5
-172 -31 -322 -107 l-117 -59 -52 15 c-59 18 -108 12 -133 -15 -9 -10 -34 -21
-55 -25 -21 -3 -50 -15 -64 -26 -14 -11 -35 -20 -47 -20 -28 0 -76 -26 -84
-45 -7 -20 -66 -45 -105 -45 -44 0 -81 -20 -88 -48 -4 -19 -33 -37 -149 -92
-112 -54 -144 -73 -144 -88 0 -55 74 -54 224 2 l99 38 75 -82 c43 -47 98 -94
129 -112 63 -35 78 -63 64 -116 -5 -21 -15 -71 -21 -112 -6 -41 -26 -145 -45
-230 -75 -341 -72 -597 11 -893 29 -105 62 -181 104 -242 44 -64 82 -85 153
-85 204 0 466 123 663 312 l61 58 17 -42 c9 -24 43 -77 77 -118 76 -93 99
-141 99 -205 0 -72 -37 -142 -207 -398 -93 -139 -161 -253 -186 -311 -21 -50
-70 -141 -109 -203 -99 -160 -106 -183 -124 -405 -8 -104 -21 -221 -29 -261
-18 -88 -68 -191 -133 -277 -27 -36 -82 -114 -122 -175 -110 -165 -247 -357
-409 -574 -79 -107 -159 -224 -178 -259 -56 -107 -41 -179 45 -220 29 -13 67
-17 183 -17 l146 0 -86 -31 c-169 -60 -244 -113 -286 -198 -77 -157 -21 -335
193 -611 l54 -70 -5 -135 c-7 -161 -27 -259 -106 -525 -107 -357 -125 -463
-141 -850 -20 -458 -24 -496 -55 -551 l-28 -50 32 -50 c17 -28 31 -59 31 -68
0 -17 -115 -96 -188 -128 -31 -14 -54 -17 -85 -13 -24 4 -55 2 -72 -5 -16 -7
-48 -14 -70 -15 -22 -2 -47 -4 -55 -5 -217 -19 -257 -24 -271 -36 -8 -8 -44
-23 -80 -35 -114 -37 -236 -115 -264 -170 -17 -32 -21 -154 -5 -164 54 -33
548 -50 935 -31 124 6 213 5 286 -3 118 -13 319 -16 374 -5 53 10 70 47 70
159 0 80 -4 98 -32 160 -25 57 -30 79 -26 116 5 42 3 48 -27 72 l-32 27 44 0
c86 1 168 63 168 128 0 46 32 81 163 181 143 108 218 181 387 379 168 196 211
284 189 382 -6 25 -18 59 -28 75 -10 17 -35 57 -55 89 -31 52 -36 68 -36 120
0 78 20 120 148 317 117 182 143 230 182 347 54 162 62 313 34 639 -28 322 -9
639 47 805 21 65 56 125 77 133 42 16 88 -238 192 -1055 71 -560 75 -583 101
-678 30 -113 72 -182 110 -182 33 0 69 -137 69 -264 0 -39 -9 -114 -20 -166
-54 -251 -53 -255 31 -372 78 -107 86 -127 115 -283 14 -71 29 -148 35 -170
25 -93 82 -170 151 -206 24 -12 43 -32 52 -54 9 -21 33 -46 65 -67 57 -37 72
-68 50 -104 -21 -34 -175 -144 -203 -144 -24 0 -56 -28 -56 -48 0 -7 -6 -12
-13 -12 -18 0 -47 -32 -47 -51 0 -8 -9 -20 -20 -27 -11 -7 -20 -18 -20 -26 0
-8 -11 -21 -25 -30 -14 -9 -25 -22 -25 -29 0 -7 -9 -18 -20 -25 -12 -7 -20
-23 -20 -40 0 -31 -19 -52 -87 -95 -23 -14 -75 -56 -116 -92 -121 -104 -143
-183 -76 -260 67 -75 251 -118 509 -118 148 0 187 3 255 21 166 45 303 137
363 242 37 66 69 97 142 138 93 52 155 117 174 183 23 78 21 169 -6 225 -21
42 -21 46 -6 55 93 52 143 120 133 181 l-5 38 44 0 c54 0 96 30 96 68 0 29
-44 102 -60 102 -17 0 -11 21 15 52 13 16 34 58 45 95 43 138 22 170 -105 158
l-75 -7 0 26 c0 38 21 82 95 207 128 211 157 291 209 569 14 74 41 182 59 240
75 234 58 327 -107 569 -74 108 -78 117 -73 156 9 62 66 212 93 245 14 15 36
54 50 85 34 73 34 136 0 280 -61 266 -82 399 -95 610 -11 184 -27 248 -72 290
-84 79 -137 201 -148 339 -10 123 -29 165 -126 281 -101 120 -105 129 -130
329 -18 139 -41 212 -100 321 -24 44 -53 109 -65 144 -11 35 -27 73 -35 85 -8
12 -21 41 -30 66 -8 24 -22 51 -29 60 -8 8 -17 26 -21 38 -4 13 -22 49 -40 80
-18 32 -35 78 -39 104 -6 54 -49 180 -72 216 -16 25 -16 41 2 142 5 26 26 55
87 115 160 159 291 350 433 630 102 202 235 531 312 770 l19 60 7 -41 c8 -43
-8 -103 -49 -185 -100 -196 -61 -408 108 -585 70 -74 144 -134 167 -134 6 0 2
17 -10 40 -22 44 -25 72 -9 101 11 21 29 17 29 -7 0 -33 54 -126 97 -169 47
-48 134 -97 191 -110 48 -10 39 9 -11 22 -78 21 -158 94 -192 176 -15 37 -15
37 44 -22 64 -64 166 -121 261 -145 78 -19 180 -30 180 -18 0 5 -26 12 -57 15
-78 7 -164 38 -230 84 -75 51 -75 58 0 22 45 -20 85 -31 133 -34 l69 -5 -72
19 c-39 11 -87 27 -105 37 -47 23 -141 95 -134 102 3 3 14 -2 24 -11 36 -33
172 -79 172 -58 0 5 -15 12 -33 15 -89 17 -171 106 -208 226 -19 63 -41 230
-30 230 4 -1 16 -22 28 -48 54 -113 155 -182 268 -182 74 0 127 9 119 21 -2 4
-29 8 -59 8 -213 -3 -329 181 -323 511 2 106 -28 156 -104 175 l-27 7 49 70
c142 202 127 395 -40 552 -43 40 -49 50 -44 75 18 87 -78 181 -207 205 l-37 7
-7 82 c-35 445 -125 740 -312 1033 -94 146 -116 192 -157 326 -57 185 -124
373 -198 548 -113 266 -111 259 -103 314 3 27 14 69 25 95 53 132 82 195 104
224 33 44 60 101 96 198 30 82 30 83 20 198 -9 111 -11 117 -40 142 -16 14
-30 30 -30 36 0 6 -7 14 -16 17 -21 8 -26 7 -44 -4z m-2484 -7788 c-41 -65
-122 -233 -148 -307 -46 -127 -59 -261 -33 -326 8 -21 -37 -38 -120 -45 -143
-12 -150 55 -27 254 71 115 333 462 348 462 2 0 -7 -17 -20 -38z m-221 -1019
c-69 -137 -95 -232 -95 -343 l0 -85 -30 50 c-32 55 -60 150 -60 202 0 93 75
219 154 258 89 44 91 38 31 -82z"/>
</g>
</svg>
